<svg width="24" height="24" viewBox="0 0 24 24" fill="none" xmlns="http://www.w3.org/2000/svg">
<path d="M8.44932 11.7774C7.83365 11.3811 6.86577 10.8949 5.81421 10.8955C4.63277 10.8963 3.52897 11.1954 3.11056 11.7659C2.90136 12.0512 2.72679 12.5261 3.08733 12.8234C3.28242 12.9843 3.47005 13.2121 3.64821 13.4815C4.85751 12.3544 6.47816 11.4611 8.44929 11.7774H8.44932Z" fill="#C3C6CD"/>
<path d="M20.6946 11.3578C20.6896 11.322 20.6832 11.2857 20.676 11.2494C20.5372 11.2362 20.3869 11.2233 20.2266 11.2109C18.7461 11.0974 16.4333 11.0536 14.8174 11.6589C14.4202 11.8075 14.0319 12.0755 13.7084 12.401C13.534 12.5764 13.3788 12.7685 13.2515 12.9682C13.1977 13.1994 13.0971 13.4115 12.9593 13.592C12.9572 13.5987 12.9545 13.6056 12.9526 13.6123L12.9462 13.6105C12.6624 13.9714 12.2319 14.202 11.7495 14.202C10.8949 14.202 10.2023 13.4791 10.2023 12.5877C10.2023 12.3973 10.2355 12.2157 10.2935 12.0465C9.57768 12.188 9.05298 12.2865 9.05298 12.2865C6.88507 11.6141 5.15646 12.6372 3.87207 13.8518C4.7098 15.3423 5.28121 17.5972 5.28121 17.5972C7.76705 18.891 16.3662 18.4468 17.1124 17.8332C17.5097 17.5065 17.5126 16.9682 17.5126 16.6997L19.353 12.7826L20.7054 11.9811C20.7055 11.9803 20.7412 11.6896 20.6948 11.3578L20.6946 11.3578Z" fill="#C3C6CD"/>
<path d="M20.9627 9.59614C19.7473 7.82079 19.4835 2.1438 11.4434 4.1646C11.457 4.37848 11.4808 4.59183 11.5261 4.80238L11.9441 6.78841C14.0386 7.64395 13.2099 11.9851 13.2639 12.2566C13.3579 12.1504 13.4579 12.0491 13.5632 11.953C13.897 11.6489 14.2808 11.401 14.6776 11.2524C14.7551 11.2235 14.8342 11.1962 14.9143 11.1699C15.72 10.906 16.6498 10.779 17.5588 10.7307C18.6605 10.6721 19.7307 10.7285 20.5115 10.7979C20.5783 10.8038 20.6427 10.8098 20.7051 10.816C21.099 10.4166 21.2365 9.99607 20.9628 9.59616L20.9627 9.59614Z" fill="#C3C6CD"/>
<path d="M12.351 10.6076L11.4426 6.29068L11.1335 4.82202C11.094 4.6384 11.0715 4.45276 11.0562 4.26676C10.9814 3.34935 11.1824 2.41064 11.5219 1.55446C11.4798 1.12924 11.1692 0.804318 10.7846 0.734684C10.7056 0.720219 10.6243 0.712987 10.5405 0.721961C10.0492 0.774997 9.69189 1.23343 9.74272 1.74611C9.33417 2.77643 9.11985 3.92606 9.35435 5.01371L9.79099 7.08868L10.5552 10.7199L10.6993 11.4044C10.9753 11.1375 11.3436 10.973 11.7496 10.973C12.0087 10.973 12.2525 11.0402 12.4671 11.1577L12.351 10.6076Z" fill="#C3C6CD"/>
<path d="M12.8181 12.8262C12.8104 12.8642 12.7968 12.8996 12.7854 12.9361L12.8181 12.8262Z" fill="#C3C6CD"/>
<path d="M12.6253 11.9101C12.5522 11.8074 12.4653 11.7158 12.3638 11.6436C12.1886 11.5192 11.9773 11.4462 11.7494 11.4462C11.3781 11.4462 11.0511 11.6402 10.8535 11.9355C10.8421 11.9527 10.8327 11.9709 10.8222 11.9887C10.7186 12.1631 10.656 12.3669 10.656 12.5872C10.656 12.9894 10.8566 13.3414 11.158 13.5445C11.3287 13.6597 11.5311 13.7283 11.7495 13.7283C12.1194 13.7283 12.4447 13.5356 12.6427 13.2424C12.6838 13.1395 12.731 13.0374 12.7854 12.9364C12.7966 12.8999 12.8103 12.8643 12.8182 12.8264C12.834 12.7493 12.8431 12.6696 12.8431 12.5874C12.8432 12.3325 12.7605 12.0997 12.6253 11.9101L12.6253 11.9101ZM11.7497 12.9746C11.5447 12.9746 11.3785 12.8011 11.3785 12.5872C11.3785 12.3734 11.5447 12.1999 11.7497 12.1999C11.9547 12.1999 12.1209 12.3733 12.1209 12.5872C12.1207 12.801 11.9547 12.9746 11.7497 12.9746Z" fill="#C3C6CD"/>
<path d="M12.7855 12.9359C12.7311 13.0369 12.6838 13.1392 12.6428 13.2419C12.7052 13.1497 12.7513 13.046 12.7855 12.9359Z" fill="#C3C6CD"/>
</svg>
