<svg width="91" height="38" viewBox="0 0 91 38" fill="none" xmlns="http://www.w3.org/2000/svg">
<path d="M39.8626 0.262943C40.0121 0.480333 40.1748 0.571076 40.3677 0.638197C40.9948 0.856428 41.5699 0.956952 42.3041 1.04706C43.4261 1.18476 44.6344 1.41217 45.7391 1.65194C47.1521 1.95865 48.5388 2.3737 49.915 2.81691C51.1617 3.21842 52.3931 3.67008 53.6025 4.17231C54.7531 4.65008 55.8823 5.18712 56.9926 5.75174C57.9384 6.23268 58.8655 6.74827 59.7765 7.29196C60.7115 7.84993 61.6299 8.43904 62.5268 9.05621C63.5535 9.76282 64.5461 10.5103 65.5352 11.2685C66.1086 11.7081 66.6871 12.1476 67.2302 12.6239C67.5968 12.9454 67.5615 12.9966 68.0385 13.3184C68.404 13.5651 68.8504 13.5299 69.262 13.3352C69.6737 13.1405 70.3565 12.7359 70.3565 12.7359C70.3565 12.7359 69.5368 12.1245 68.8916 11.6774C68.9034 11.6793 68.9199 11.6871 68.9309 11.6886C69.3409 11.745 69.8685 11.5925 70.2779 11.5318C70.5265 11.4949 70.7848 11.4842 71.0357 11.4982C71.5815 11.5285 72.1159 11.6553 72.6521 11.7614C75.2942 12.2844 77.9349 12.8475 80.5212 13.5985C82.3844 14.1395 84.2286 14.7601 86.016 15.5139C86.6104 15.7646 87.2129 16.0173 87.7447 16.3821C88.2351 16.7184 88.6933 17.1159 89.0637 17.5806C89.4135 18.0194 89.6549 18.5409 89.8944 19.0481C90.1179 19.5213 90.3521 19.997 90.4557 20.5099C90.617 21.3081 90.5392 22.1376 90.5343 22.9518C90.529 23.8291 90.5027 24.7112 90.4164 25.5842C90.328 26.4795 90.1975 27.2562 90.1582 28.155C90.15 28.343 90.1532 28.6501 90.2312 28.8215C90.2898 28.9505 90.3023 28.9771 90.3434 29.1127C90.3805 29.2349 90.3208 29.3706 90.2705 29.488C90.15 29.769 89.9595 30.0223 89.7429 30.2385C89.6346 30.3465 89.4781 30.3967 89.3668 30.5017C89.2046 30.6549 89.1104 30.8715 88.9515 31.0282C88.6141 31.3609 88.2443 31.6725 87.8233 31.8907C87.2281 32.1992 86.558 32.3484 85.9038 32.4956C85.1992 32.6541 84.4739 32.7333 83.7541 32.7924C83.2537 32.8336 82.8289 32.8873 82.2499 32.8316C81.8358 32.8239 81.9016 32.8275 81.5258 32.8204C81.8327 31.9429 82.0029 30.9964 82.0029 30.0144C82.0029 25.3176 78.1841 21.5124 73.4772 21.5124C68.7703 21.5124 64.9571 25.3176 64.9571 30.0144C64.9571 30.8795 65.0869 31.7147 65.3275 32.5012C65.0583 32.4966 65.1103 32.5005 64.8224 32.4956C46.1197 32.2683 36.463 31.9556 22.2835 31.7451C22.0343 31.7414 21.7939 31.7333 21.5482 31.7283C21.6938 31.1053 21.7728 30.4576 21.7728 29.7904C21.7728 25.0935 17.9595 21.2884 13.2526 21.2884C8.54574 21.2884 4.72689 25.0935 4.72689 29.7904C4.72689 30.084 4.7427 30.3726 4.7718 30.6585C4.51495 30.6145 4.26732 30.5358 4.03091 30.4289C3.53643 30.2053 3.09248 29.8706 2.67264 29.5272C2.21978 29.1567 1.80984 28.736 1.43222 28.2894C1.19424 28.0079 0.889984 27.7428 0.792374 27.3877C0.669167 26.9394 0.880501 27.0416 0.904625 25.9931C0.94265 24.3403 0.903053 22.6856 1.01688 21.0363C1.06203 20.3825 1.075 19.638 1.24139 19.0817C1.2998 18.8864 1.48699 18.6952 1.61744 18.5384C1.73764 18.3939 1.97372 18.3667 1.99349 18.1799C2.06871 17.4697 2.07671 16.7276 2.11136 16.0012C2.13372 15.5325 2.10686 15.0624 2.14503 14.5954C2.14967 14.6268 2.15794 14.6599 2.16749 14.6906C2.2151 14.8438 2.38982 14.9241 2.46497 15.0659C2.54478 15.2164 2.58795 15.3852 2.61651 15.5532C2.67218 15.8805 2.67058 16.2184 2.6558 16.5501C2.64035 16.8969 2.54805 17.2346 2.52109 17.5806C2.50407 17.7992 2.41491 18.0413 2.50425 18.2415C2.57124 18.3917 2.72808 18.4981 2.8803 18.5608C3.17699 18.683 3.52163 18.6734 3.84008 18.6336C4.16883 18.5925 4.49876 18.4842 4.78302 18.3144C5.34283 17.9798 5.75556 17.4444 6.21426 16.9814C6.96664 16.2218 7.72919 15.4637 8.37517 14.6122C8.54014 14.3948 8.76067 14.1865 8.80734 13.9177C8.84791 13.6842 8.79881 13.4165 8.66142 13.2232C8.39747 12.8519 7.9054 12.7086 7.49397 12.5119C7.00719 12.2792 6.49405 12.0807 5.96731 11.963C5.58595 11.8779 5.19064 11.8536 4.79986 11.851C4.42213 11.8485 4.03499 11.843 3.6717 11.9462C3.33978 12.0406 2.99564 12.1736 2.75121 12.4167C2.71874 12.449 2.68797 12.4861 2.66141 12.5231C2.90276 11.951 3.26453 11.4472 3.62119 10.9381C3.69024 10.9128 4.47593 10.622 4.91212 10.518C5.22713 10.443 5.81577 10.4452 5.81577 10.4452C5.81577 10.4452 6.57729 9.34375 7.00005 8.82658C7.51382 8.19807 8.05677 7.59472 8.63896 7.02872C9.27309 6.41224 9.94547 5.82786 10.6539 5.29807C11.3544 4.77427 12.8541 3.86986 12.8541 3.86986L11.6193 3.25938C11.803 3.05663 11.5504 2.53106 11.7428 2.29604C11.8888 2.11778 12.133 2.11775 12.4388 2.11121C13.2668 2.0935 14.0427 2.04878 14.8691 1.99359C15.9282 1.92287 16.9767 1.75674 18.0291 1.61834C19.0723 1.48114 20.1093 1.27921 21.1553 1.16467C23.3192 0.927733 25.4918 0.781687 27.6661 0.677403C30.0479 0.563166 32.439 0.601454 34.8223 0.526181C35.7136 0.498034 36.6035 0.460701 37.494 0.414165C38.285 0.37283 39.071 0.244132 39.8626 0.262943ZM33.6549 2.38565C33.6549 2.38565 31.9107 2.38819 31.0394 2.42486C29.7826 2.47773 28.5261 2.57696 27.2732 2.68809C25.991 2.80183 24.7086 2.92172 23.4341 3.10255C22.5069 3.23412 21.5418 3.39822 20.667 3.58982C20.4574 3.63574 20.1643 3.76789 20.1563 3.98188C20.1069 5.29848 20.0988 6.55168 20.0833 7.83524C20.0668 9.2062 20.0665 11.9462 20.0665 11.9462C20.0665 11.9462 24.7214 11.9833 27.0487 12.0246C29.5774 12.0696 34.6315 12.2095 34.6315 12.2095L33.6549 2.38565ZM37.7578 2.40805C37.7578 2.40805 38.3566 5.72297 38.7344 7.36477C39.1322 9.09339 40.0927 12.5119 40.0927 12.5119C40.0927 12.5119 42.8777 12.6308 44.2686 12.7359C46.8456 12.9308 49.4181 13.1951 51.9861 13.4865C52.9541 13.5963 54.7363 13.7329 54.7363 13.7329C54.7363 13.7329 54.7273 13.0281 54.8261 12.6967C54.9254 12.3639 55.3144 11.7782 55.3144 11.7782L53.8326 5.82455C53.8326 5.82455 52.1653 5.10133 51.3069 4.8108C49.975 4.35999 48.6117 4.00951 47.2433 3.68504C45.8619 3.35747 44.466 3.06616 43.0618 2.85612C41.9641 2.69193 40.8568 2.60773 39.7503 2.52007C39.0863 2.46746 37.7578 2.40805 37.7578 2.40805ZM17.9 4.30113C17.9 4.30113 16.6801 4.59597 16.0927 4.8108C15.2702 5.11158 14.4576 5.45575 13.7016 5.89736C12.7562 6.44967 11.8704 7.11437 11.0468 7.83524C10.4864 8.3258 9.89875 8.81762 9.50333 9.44827C9.15356 10.0061 9.3326 9.98087 9.8457 10.2212C10.9137 10.7214 12.1031 10.9143 13.2526 11.1789C14.3522 11.4321 16.581 11.7782 16.581 11.7782L17.9 4.30113ZM54.697 6.1998C55.096 7.82816 55.6697 9.58502 56.0721 11.2125C56.0721 11.2125 56.6928 11.07 56.9926 11.1005C57.25 11.1267 57.7215 11.2804 58.0646 11.459C58.3641 11.6147 58.7241 11.8444 58.9851 12.0582C59.2664 12.2886 59.5891 12.6998 59.7204 13.0384C59.9111 13.5301 59.7204 14.461 59.7204 14.461C59.7204 14.461 60.4657 14.5284 60.944 14.5786C61.4196 14.6285 62.3752 14.6906 62.3752 14.6906C62.3752 14.6906 61.9112 12.7659 61.5838 11.8342C61.3625 11.2043 60.7924 9.99155 60.7924 9.99155C60.7924 9.99155 60.0931 9.31148 59.7036 9.01701C58.9572 8.45279 58.1444 7.97595 57.3294 7.51599C56.4746 7.03362 54.697 6.1998 54.697 6.1998ZM79.0113 15.1723C78.8781 15.1689 78.7488 15.184 78.6353 15.2507C78.5239 15.3161 78.4398 15.4639 78.4501 15.5924C78.4678 15.8146 78.7083 15.9603 78.8654 16.1188C79.3862 16.6445 80.0141 17.048 80.5941 17.5078C81.4058 18.1513 82.1831 18.8429 83.0413 19.4233C83.4136 19.6751 83.79 19.9314 84.2087 20.0954C84.5799 20.2408 84.9816 20.3012 85.3762 20.3586C86.1104 20.4656 86.8513 20.52 87.5932 20.5099C87.8579 20.5063 88.1616 20.5793 88.3846 20.4371C88.5315 20.3434 88.5374 20.1175 88.6484 19.9834C88.8182 19.7781 89.039 19.6137 89.2546 19.4569C89.3728 19.3709 89.6054 19.3767 89.6306 19.2329C89.706 18.8033 89.0998 18.5363 88.7999 18.2191C88.5196 17.9226 88.277 17.5436 87.8963 17.3958C87.7209 17.3277 87.5182 17.439 87.335 17.3958C86.8708 17.2865 86.4941 16.9438 86.0553 16.7573C85.504 16.523 84.9294 16.3397 84.3603 16.1524C83.7873 15.9639 83.2133 15.7634 82.6259 15.626C82.1058 15.5043 81.5789 15.4287 81.0488 15.3627C80.599 15.3067 80.1434 15.2695 79.6905 15.2507C79.4711 15.2416 79.2334 15.178 79.0113 15.1723ZM13.2526 22.3525C17.3687 22.3525 20.7063 25.683 20.7063 29.7904C20.7063 33.8978 17.3687 37.2283 13.2526 37.2283C9.13651 37.2283 5.79893 33.8978 5.79893 29.7904C5.79893 25.683 9.13651 22.3525 13.2526 22.3525ZM73.4772 22.5766C77.5933 22.5766 80.9309 25.9071 80.9309 30.0144C80.9309 34.1218 77.5933 37.4523 73.4772 37.4523C69.3611 37.4523 66.0291 34.1218 66.0291 30.0144C66.0291 25.9071 69.3611 22.5766 73.4772 22.5766ZM13.2526 24.38C10.2589 24.38 7.83073 26.8031 7.83073 29.7904C7.83073 32.7778 10.2589 35.2008 13.2526 35.2008C16.2463 35.2008 18.6689 32.7778 18.6689 29.7904C18.6689 26.8031 16.2463 24.38 13.2526 24.38ZM73.4772 24.6041C70.4835 24.6041 68.0609 27.0271 68.0609 30.0144C68.0609 33.0018 70.4835 35.4248 73.4772 35.4248C76.4709 35.4248 78.8991 33.0018 78.8991 30.0144C78.8991 27.0271 76.4709 24.6041 73.4772 24.6041Z" fill="#F9B233"/>
</svg>
