<svg width="23" height="21" viewBox="0 0 23 21" fill="none" xmlns="http://www.w3.org/2000/svg">
<path d="M1.40168 3.83514H7.24006V2.17362C7.24006 1.5091 7.76222 0.986938 8.42675 0.986938C9.09127 0.986938 9.61343 1.5091 9.61343 2.17362V3.83514H13.6006V2.17362C13.6006 1.5091 14.1227 0.986938 14.7873 0.986938C15.4518 0.986938 15.974 1.5091 15.974 2.17362V3.83514H21.8123C22.4769 3.83514 22.999 4.3573 22.999 5.02182V19.6892C22.999 20.3537 22.4769 20.8759 21.8123 20.8759H1.40142C0.736897 20.8759 0.214741 20.3537 0.214741 19.6892L0.215071 5.02182C0.215071 4.3573 0.737228 3.83514 1.40175 3.83514H1.40168ZM2.58836 18.5025H20.6259V6.20851H15.9742V6.92038C15.9742 7.5849 15.4521 8.10706 14.7875 8.10706C14.123 8.10706 13.6008 7.5849 13.6008 6.92038V6.20851H9.61368V6.92038C9.61368 7.5849 9.09152 8.10706 8.427 8.10706C7.76248 8.10706 7.24032 7.5849 7.24032 6.92038V6.20851H2.58861L2.58836 18.5025ZM17.9677 10.0059H15.5944V12.3792H17.9677V10.0059ZM17.9677 13.756H15.5944V16.1293H17.9677V13.756ZM12.7939 10.0059H10.4205V12.3792H12.7939V10.0059ZM12.7939 13.756H10.4205V16.1293H12.7939V13.756ZM7.62006 10.0059H5.24669V12.3792H7.62006V10.0059ZM7.62006 13.756H5.24669V16.1293H7.62006V13.756Z" fill="#C3C6CD"/>
</svg>
