<svg width="53" height="52" viewBox="0 0 53 52" fill="none" xmlns="http://www.w3.org/2000/svg">
<rect x="0.510986" y="0.5" width="51.0201" height="51" rx="25.5" fill="white" stroke="#F9B233"/>
<g opacity="0.5">
<path d="M16.7849 20.9551C16.7849 20.3497 17.2821 19.8525 17.8875 19.8525L31.4438 19.8523L30.2331 18.6416C29.8655 18.274 29.779 17.6902 30.0601 17.2363C30.4492 16.6309 31.2708 16.5876 31.7465 17.0633L34.9897 20.3064C35.3572 20.674 35.3572 21.2361 34.9897 21.6038L31.7681 24.8253C31.2924 25.301 30.4708 25.2362 30.0817 24.6523C29.8006 24.22 29.8871 23.6146 30.2547 23.2471L31.4654 22.0363H17.8875C17.2605 22.0577 16.7848 21.5605 16.7848 20.9551L16.7849 20.9551ZM17.0444 31.7223L20.2659 34.9438C20.7415 35.4195 21.5632 35.3547 21.9523 34.7708C22.2334 34.3385 22.1469 33.7331 21.7793 33.3656L20.5686 32.1548L34.1681 32.1547C34.7735 32.1547 35.2708 31.6574 35.2708 31.0521C35.2708 30.4467 34.7735 29.9494 34.1681 29.9494H20.5902L21.8009 28.7387C22.1685 28.3712 22.2551 27.7873 21.9739 27.3334C21.5848 26.728 20.7632 26.6848 20.2875 27.1604L17.0659 30.382C16.6767 30.7709 16.6767 31.3547 17.0444 31.7223L17.0444 31.7223Z" fill="black"/>
</g>
</svg>
