<svg width="16" height="16" viewBox="0 0 16 16" fill="none" xmlns="http://www.w3.org/2000/svg">
<path d="M15.7122 13.9212V4.99668C15.7122 4.62296 15.5637 4.2645 15.2995 4.00031C15.0352 3.73601 14.6767 3.58758 14.303 3.58758H11.4847V1.70877C11.4847 1.33505 11.3362 0.976585 11.072 0.71229C10.8077 0.448101 10.4493 0.299561 10.0755 0.299561H6.31783C5.94411 0.299561 5.58565 0.448092 5.32135 0.71229C5.05716 0.976588 4.90862 1.33502 4.90862 1.70877V3.58758H2.09036C1.71664 3.58758 1.35818 3.73601 1.09388 4.00031C0.829692 4.2645 0.681152 4.62296 0.681152 4.99668V13.9212C0.681152 14.2949 0.829684 14.6534 1.09388 14.9176C1.35818 15.1818 1.71661 15.3304 2.09036 15.3304H14.3028C14.6765 15.3304 15.035 15.1818 15.2993 14.9176C15.5635 14.6533 15.712 14.2949 15.712 13.9212H15.7122ZM9.60597 3.58756H6.78771V2.17837H9.60597V3.58756Z" fill="#C3C6CD"/>
</svg>
