<svg width="26" height="17" viewBox="0 0 26 17" fill="none" xmlns="http://www.w3.org/2000/svg">
<path d="M0.616812 8.66233V13.3948H2.27351C2.63883 15.1948 4.23015 16.5498 6.13801 16.5498C8.04587 16.5498 9.63715 15.1948 10.0025 13.3948H16.4708C16.8361 15.1948 18.4274 16.5498 20.3353 16.5498C22.2431 16.5498 23.8344 15.1948 24.1998 13.3948H25.8565V7.08484L23.1374 1.64686C22.8703 1.11252 22.324 0.774902 21.7266 0.774902H9.47907C8.8816 0.774902 8.33534 1.1125 8.06818 1.64686L5.34916 7.08484H2.19418C1.32313 7.08484 0.616699 7.79128 0.616699 8.66233H0.616812ZM14.8142 2.35239V7.08484H7.11267L9.4789 2.35239H14.8142ZM4.56053 12.606C4.56053 11.7363 5.26825 11.0286 6.13801 11.0286C7.00777 11.0286 7.7155 11.7363 7.7155 12.606C7.7155 13.4758 7.00777 14.1835 6.13801 14.1835C5.26825 14.1835 4.56053 13.4758 4.56053 12.606ZM18.7579 12.606C18.7579 11.7363 19.4656 11.0286 20.3354 11.0286C21.2051 11.0286 21.9129 11.7363 21.9129 12.606C21.9129 13.4758 21.2051 14.1835 20.3354 14.1835C19.4656 14.1835 18.7579 13.4758 18.7579 12.606ZM24.0929 7.08484H16.3914V2.35239H21.7264L24.0929 7.08484Z" fill="#C3C6CD"/>
</svg>
