<svg width="21" height="22" viewBox="0 0 21 22" fill="none" xmlns="http://www.w3.org/2000/svg">
<path d="M10.5634 2.11129C11.7596 2.11129 12.9188 2.34527 14.0093 2.80672C15.0633 3.25264 16.0106 3.89119 16.8245 4.70467C17.638 5.51816 18.277 6.46541 18.7225 7.51987C19.1839 8.61042 19.4179 9.77005 19.4179 10.9658C19.4179 12.1615 19.1839 13.3211 18.7225 14.4117C18.2765 15.4657 17.638 16.4129 16.8245 17.2269C16.011 18.0403 15.0638 18.6793 14.0093 19.1248C12.9188 19.5863 11.7591 19.8202 10.5634 19.8202C9.3677 19.8202 8.20808 19.5863 7.11752 19.1248C6.06351 18.6789 5.11626 18.0403 4.30233 17.2269C3.48884 16.4134 2.84986 15.4661 2.40438 14.4117C1.94294 13.3211 1.70895 12.1615 1.70895 10.9658C1.70895 9.77005 1.94293 8.61042 2.40438 7.51987C2.8503 6.46585 3.48884 5.51861 4.30233 4.70467C5.11582 3.89119 6.06307 3.2522 7.11752 2.80672C8.20808 2.34528 9.3677 2.11129 10.5634 2.11129ZM10.5634 0.567871C4.82118 0.567871 0.165527 5.22353 0.165527 10.9658C0.165527 16.708 4.82118 21.3637 10.5634 21.3637C16.3057 21.3637 20.9613 16.7084 20.9613 10.9658C20.9613 5.22316 16.3057 0.567871 10.5634 0.567871Z" fill="#C3C6CD"/>
<path d="M14.9465 11.7429H10.5635C10.1374 11.7429 9.79175 11.3973 9.79175 10.9712V4.91038C9.79175 4.48433 10.1374 4.13867 10.5635 4.13867C10.9895 4.13867 11.3352 4.48435 11.3352 4.91038V10.1996H14.9464C15.3725 10.1996 15.7181 10.5452 15.7181 10.9713C15.7181 11.3973 15.3725 11.743 14.9464 11.743L14.9465 11.7429Z" fill="#C3C6CD"/>
</svg>
